PathFileType	4	(X/Y/Z)	walk-thru1-4-TP.trc
DataRate	CameraRate	NumFrames	NumMarkers	Units	OrigDataRate	OrigDataStartFrame	OrigNumFrames
120.00	120.00	       4	60	mm	120.00	1	       512
Frame#	Time	Top.Head			Front.Head			Rear.Head			Jaw			C7			R.Clavicle			L.Clavicle			R.Shoulder			L.Shoulder			R.Scapula			L.Scapula			R.Scap.Inf			R.Biceps.Lateral			R.Elbow			R.Elbow.Medial			R.Forearm			R.Ulna			R.Radius			R.Wrist			R.Thumb.M1			R.Thumb.M2			R.Thumb.M3			R.Finger3.M1			R.Finger3.M2			R.Finger3.M3			L.Biceps.Lateral			L.Elbow			L.Elbow.Medial			L.Forearm			L.Ulna			L.Radius			L.Wrist			L.Thumb.M1			L.Thumb.M2			L.Thumb.M3			L.Finger3.M1			L.Finger3.M2			L.Finger3.M3			V.Sacral			R.ASIS			L.ASIS			R.Thigh			R.Thigh.Front			R.Knee			R.Knee.Medial			R.Shank			R.Ankle			R.Ankle.Medial			R.Heel			R.Toe			R.MedFoot			L.Thigh			L.Knee			L.Knee.Medial			L.Shank			L.Ankle			L.Ankle.Medial			L.Heel			L.Toe			L.MedFoot			V_mid_ASIS			V_R_Knee_JC			V_L_Knee_JC			V_R_Elbow_JC			V_L_Elbow_JC			V_R_Ankle_JC			V_L_Ankle_JC			V_R_Wrist_JC			V_L_Wrist_JC			V_R_ScaTrpz_1stMC_JC			V_R_1stMC_1stPP_JC			V_R_1stPP_1stDP_JC			V_R_LunCap_3rdMC_JC			V_R_3rdMC_3rdPP_JC			V_R_3rdPP_3rdMP_JC			V_R_3rdMP_3rdDP_JC			V_L_ScaTrpz_1stMC_JC			V_L_1stMC_1stPP_JC			V_L_1stPP_1stDP_JC			V_L_LunCap_3rdMC_JC			V_L_3rdMC_3rdPP_JC			V_L_3rdPP_3rdMP_JC			V_L_3rdMP_3rdPP_JC			V_ROOT_JC			V_R_Hip_JC			V_L_Hip_JC			V_R_GlenHum_JC			V_L_GlenHum_JC			V_ForeHead_Ctr			V_Vertex			V_Sagit_Lambdoid_Suture			V_R_FrontoTemp			V_L_FrontoTemporal			V_R_ParietalOccip			V_L_ParietalOcciptal			V_R_Temporal			V_L_Temporal			V_mid_FrontRearHead			V_mid_RLGlenHumCtrs			V_C7_vert			V_C1_vert			V_Mid_Hip			
		X1	Y1	Z1	X2	Y2	Z2	X3	Y3	Z3	X4	Y4	Z4	X5	Y5	Z5	X6	Y6	Z6	X7	Y7	Z7	X8	Y8	Z8	X9	Y9	Z9	X10	Y10	Z10	X11	Y11	Z11	X12	Y12	Z12	X13	Y13	Z13	X14	Y14	Z14	X15	Y15	Z15	X16	Y16	Z16	X17	Y17	Z17	X18	Y18	Z18	X19	Y19	Z19	X20	Y20	Z20	X21	Y21	Z21	X22	Y22	Z22	X23	Y23	Z23	X24	Y24	Z24	X25	Y25	Z25	X26	Y26	Z26	X27	Y27	Z27	X28	Y28	Z28	X29	Y29	Z29	X30	Y30	Z30	X31	Y31	Z31	X32	Y32	Z32	X33	Y33	Z33	X34	Y34	Z34	X35	Y35	Z35	X36	Y36	Z36	X37	Y37	Z37	X38	Y38	Z38	X39	Y39	Z39	X40	Y40	Z40	X41	Y41	Z41	X42	Y42	Z42	X43	Y43	Z43	X44	Y44	Z44	X45	Y45	Z45	X46	Y46	Z46	X47	Y47	Z47	X48	Y48	Z48	X49	Y49	Z49	X50	Y50	Z50	X51	Y51	Z51	X52	Y52	Z52	X53	Y53	Z53	X54	Y54	Z54	X55	Y55	Z55	X56	Y56	Z56	X57	Y57	Z57	X58	Y58	Z58	X59	Y59	Z59	X60	Y60	Z60	

1	0.000	-1221.76440	-10.09526	1793.38525	-1126.63599	-5.62789	1674.76367	-1354.00867	-8.69500	1701.14771	-1181.03137	-7.88078	1511.72058	-1375.51257	-2.25922	1565.70642	-1286.31750	-122.94083	1466.63318	-1267.48560	103.50898	1468.97864	-1333.41162	-209.03105	1463.67249	-1325.24170	202.40327	1478.89099	-1433.44604	-88.03757	1484.31885	-1422.77600	81.61731	1485.59290	-1485.63403	-95.14027	1398.20850	-1397.07166	-266.43866	1293.37878	-1443.55933	-283.36075	1142.48755	-1457.07422	-193.77550	1125.33398	-1360.80872	-238.39362	1023.87970	-1398.92920	-280.59467	925.37579	-1336.44299	-222.03409	893.50891	-1342.84155	-262.58640	845.09222	-1326.09680	-216.79526	858.93658	-1291.71326	-187.73668	812.85950	-1252.95288	-188.41507	783.53815	-1302.33643	-267.53784	775.84711	-1285.56824	-227.53600	722.53424	-1300.40918	-182.52669	699.35504	-1350.06946	269.32867	1332.90698	-1366.98608	313.86771	1156.87512	-1417.39172	252.35435	1141.67236	-1303.54761	280.45938	1051.76440	-1353.96875	307.71686	962.28644	-1288.26367	246.18491	911.76086	-1293.81604	281.59344	854.95758	-1281.15356	233.69228	846.15063	-1291.10767	198.83186	798.34143	-1289.05261	204.80196	734.11310	-1278.69214	294.86987	779.56091	-1294.09961	277.29184	724.15277	-1318.96094	259.94363	680.76868	-1483.87573	9.16152	1089.82898	-1401.51648	-185.86787	1032.60571	-1378.31604	189.46411	1027.91272	-1235.47107	-164.37852	648.49072	-1138.88367	-78.94207	584.18262	-1189.89392	-145.03754	525.87567	-1197.70605	-24.97116	519.78827	-1247.62219	-112.88915	347.88025	-1429.17126	-154.88165	149.17522	-1385.52722	-60.76703	148.56601	-1488.13525	-93.82425	143.36134	-1278.04700	-126.12042	61.99075	-1323.71399	-81.61776	96.27538	-1344.04395	153.90456	639.49927	-1323.40442	122.54394	492.71576	-1326.23108	8.73813	499.19852	-1343.33997	60.81815	294.41565	-1466.15979	75.67758	63.53928	-1437.02625	-18.62870	105.40343	-1521.39331	14.23535	53.13173	-1282.64734	35.50325	41.61029	-1348.13745	2.10521	66.40402																																																																																																																															
2	0.008	-1217.46277	-9.50610	1793.81555	-1122.37903	-4.00416	1675.12061	-1349.17212	-8.75002	1701.69141	-1174.91455	-9.11772	1511.70581	-1370.34692	-1.90131	1564.63550	-1282.63123	-123.49876	1468.21326	-1260.85278	102.61710	1468.65283	-1328.64014	-209.38945	1464.72131	-1320.52319	203.65259	1479.91528	-1428.73706	-87.99873	1483.46497	-1418.24536	81.31116	1486.12866	-1481.17285	-94.28828	1398.80615	-1392.03821	-266.01865	1292.84253	-1438.95081	-282.61624	1142.71997	-1451.68469	-192.95755	1125.29321	-1353.89050	-239.79016	1024.00684	-1394.02747	-280.08734	925.46198	-1331.41687	-220.93044	894.60950	-1338.40027	-261.79990	844.68243	-1322.86902	-216.97046	859.12415	-1285.00793	-188.90823	812.33069	-1249.95801	-188.16350	784.36682	-1297.20386	-268.11011	776.02850	-1283.08936	-227.66873	721.44592	-1295.48792	-181.93472	699.57599	-1343.79907	268.25305	1332.76428	-1361.74915	313.08350	1156.95715	-1412.24121	253.30835	1141.42676	-1298.49146	281.61597	1051.52283	-1347.85046	306.30151	962.28876	-1284.37024	247.28929	911.44714	-1290.90161	282.67941	854.19073	-1281.03638	233.88943	847.02997	-1285.62341	199.52521	798.20953	-1280.94971	204.41435	735.77765	-1272.56543	295.46967	779.97876	-1286.69604	277.43069	723.97931	-1313.11182	259.87064	680.85199	-1478.83240	9.00851	1090.18616	-1398.43774	-184.85796	1032.23132	-1373.84729	188.41356	1027.94653	-1226.92456	-163.43683	649.01697	-1133.34082	-77.20666	585.30194	-1181.92505	-144.14801	527.44159	-1190.75818	-25.05474	520.60730	-1234.73853	-113.38295	347.68430	-1412.25684	-156.10199	143.20490	-1368.88306	-59.19005	144.46521	-1471.42163	-94.05482	134.76456	-1258.56824	-124.75986	60.52142	-1305.52417	-82.07028	93.57736	-1341.18860	153.72823	639.03473	-1323.04871	122.72167	492.60928	-1324.58325	9.37489	499.30893	-1343.08191	60.81763	294.43164	-1466.27893	76.30318	63.62568	-1434.38293	-17.90161	105.30298	-1521.03918	15.18944	51.70605	-1282.60779	35.77815	41.22538	-1348.13745	2.10521	66.40402																																																																																																																															
3	0.017	-1212.35449	-11.12208	1791.84326	-1118.06897	-4.35766	1676.29297	-1344.85645	-8.30187	1701.44873	-1171.20740	-9.09989	1511.76733	-1365.82532	-2.39561	1564.98901	-1278.77246	-124.08581	1467.03503	-1256.48792	102.84766	1468.70032	-1323.27234	-207.84065	1463.66882	-1316.28381	203.89577	1481.05969	-1424.37830	-86.91258	1483.69214	-1413.46167	81.81321	1486.19775	-1475.59546	-94.97208	1397.84082	-1387.17517	-265.62366	1292.03369	-1434.55835	-283.28476	1143.72815	-1447.98999	-193.99612	1124.61572	-1350.14636	-237.71890	1023.24615	-1389.73572	-281.05811	924.74603	-1324.99768	-221.31548	892.30243	-1332.74597	-259.55057	844.13708	-1315.43665	-218.88760	859.86798	-1279.77417	-188.83195	812.91516	-1242.35681	-187.75984	784.79474	-1294.31482	-268.65854	776.01599	-1278.66663	-227.52950	722.50677	-1292.54980	-183.53810	699.80627	-1339.81946	271.36041	1332.12329	-1356.21594	314.14661	1157.11377	-1407.61157	252.98509	1141.83105	-1292.73059	279.28796	1051.30164	-1343.32397	307.99866	962.80170	-1275.91260	246.40971	912.00635	-1283.96143	280.45618	854.67706	-1270.19006	235.58588	847.72784	-1282.17358	198.33064	798.48230	-1279.30798	205.60883	735.37280	-1268.15540	295.58551	779.53687	-1282.20483	277.41949	724.13873	-1307.75342	259.90207	680.52411	-1474.31628	9.72554	1090.10315	-1389.69531	-186.34456	1031.21045	-1367.31018	189.74660	1027.13672	-1222.03662	-163.62363	650.13116	-1127.47070	-76.73419	586.02148	-1177.06885	-143.44176	527.41321	-1186.68848	-23.13787	521.08405	-1225.48120	-110.89101	346.73358	-1394.93665	-154.82451	137.63608	-1352.59314	-62.56821	140.02228	-1454.93274	-95.38353	128.02448	-1238.60059	-123.80977	59.62091	-1286.27771	-81.85831	92.08421	-1338.34509	152.68419	639.36353	-1321.58923	122.61169	491.95633	-1323.23987	9.48539	499.35641	-1339.82410	62.60806	294.17856	-1466.22266	75.69597	64.12844	-1434.41711	-17.83736	106.06243	-1520.49561	15.56910	52.01091	-1282.53699	35.77013	41.22879	-1348.13745	2.10521	66.40402																																																																																																																															
4	0.025	-1209.93774	-10.47360	1793.21436	-1112.86707	-5.94977	1676.00952	-1339.62317	-8.39089	1700.87988	-1165.95898	-9.23114	1512.05139	-1361.71997	-2.13227	1565.40979	-1274.24646	-123.43791	1467.62244	-1251.65820	103.36269	1467.70544	-1320.02454	-208.20705	1463.65125	-1311.03772	202.88025	1481.05457	-1419.68958	-86.86969	1483.98792	-1409.19238	81.92856	1486.15259	-1470.52087	-93.94971	1397.61316	-1382.77820	-265.52191	1292.51306	-1429.38171	-281.96866	1142.72620	-1443.27625	-193.35477	1124.90198	-1344.39319	-239.93817	1023.63483	-1383.60669	-279.26187	924.70020	-1319.55969	-223.56326	893.94928	-1328.92542	-261.50354	844.92371	-1309.91553	-217.16585	859.88147	-1276.49463	-189.76169	813.21417	-1237.83594	-190.53127	785.32520	-1287.56702	-268.54880	775.58307	-1271.26074	-228.69290	722.34576	-1285.80078	-182.63036	698.97644	-1334.10754	269.39014	1332.93481	-1351.13342	313.07047	1156.36267	-1402.54224	253.83702	1141.46179	-1290.14258	281.23996	1051.47217	-1337.64990	307.18460	961.76855	-1275.21399	246.93813	911.22522	-1280.09631	284.21216	854.14423	-1268.37585	234.09113	848.20813	-1276.70300	199.25343	797.89130	-1268.52795	203.44337	736.59479	-1263.23547	296.35107	780.92285	-1277.25525	276.43210	723.78888	-1302.05249	259.87253	680.99927	-1469.47205	9.43479	1090.00574	-1387.65576	-185.78065	1031.60657	-1363.69373	189.77037	1028.04407	-1216.21008	-162.62599	650.70782	-1122.28748	-74.89559	587.80011	-1169.80786	-142.76807	528.63635	-1181.06775	-23.62977	521.64807	-1210.34631	-111.00243	347.58282	-1375.04272	-155.33383	131.47800	-1334.49890	-61.04520	135.91774	-1436.63623	-93.04655	119.70918	-1218.76709	-123.36278	59.83406	-1268.17151	-80.21354	91.06129	-1335.88208	153.26494	639.27924	-1320.26880	122.21471	491.82965	-1323.16541	9.00432	498.59421	-1338.71240	61.85711	293.64340	-1466.04858	75.71402	64.01797	-1430.85522	-15.26542	102.64559	-1520.44373	14.41767	53.61789	-1282.53699	35.77013	41.22879	-1348.13745	2.10521	66.40402																																																																																																																															
